<svg width="216" height="33" viewBox="0 0 216 33" fill="none" xmlns="http://www.w3.org/2000/svg">
    <path d="M22.5529 15.6463H10.9631C11.4342 13.6965 13.4465 12.2559 15.3938 12.2559H21.5131C28.7999 12.2559 34.9593 7.16489 35.3991 0.698242H12.9733C11.34 0.698242 9.70676 0.958208 8.13633 1.54313C3.42502 3.2654 0.0957031 7.65233 0.0957031 13.8265V32.2191H6.21495C8.25652 32.2191 9.73817 30.4643 9.73817 28.3521V23.9327H14.5437L22.5529 15.6463Z" fill="white"/>
    <path d="M32.1956 15.6458V28.0266C32.1956 30.3338 30.3739 32.2186 28.1439 32.2186H22.5532V23.9322H14.5439L22.5532 15.6458H32.1956Z" fill="url(#paint0_linear_3907_21665)"/>
    <path d="M195.54 32.2195V2.87646H216V8.63619H202.632V14.6538H214.954V20.4279H202.632V26.4598H216V32.2195H195.54Z" fill="white"/>
    <path d="M191.081 2.87646V32.2195H185.063L173.386 15.2842H173.2V32.2195H166.107V2.87646H172.211L183.759 19.7831H184.003V2.87646H191.081Z" fill="white"/>
    <path d="M161.967 17.5478C161.967 20.7763 161.346 23.5129 160.104 25.7576C158.862 28.0022 157.181 29.7072 155.061 30.8725C152.95 32.0378 150.581 32.6205 147.954 32.6205C145.318 32.6205 142.944 32.0331 140.833 30.8582C138.722 29.6833 137.046 27.9783 135.804 25.7432C134.572 23.4986 133.956 20.7667 133.956 17.5478C133.956 14.3193 134.572 11.5827 135.804 9.33805C137.046 7.09338 138.722 5.38839 140.833 4.22307C142.944 3.05776 145.318 2.4751 147.954 2.4751C150.581 2.4751 152.95 3.05776 155.061 4.22307C157.181 5.38839 158.862 7.09338 160.104 9.33805C161.346 11.5827 161.967 14.3193 161.967 17.5478ZM154.717 17.5478C154.717 15.6374 154.445 14.0232 153.9 12.7051C153.365 11.3869 152.592 10.3887 151.579 9.71057C150.576 9.03239 149.368 8.6933 147.954 8.6933C146.55 8.6933 145.342 9.03239 144.329 9.71057C143.317 10.3887 142.538 11.3869 141.994 12.7051C141.459 14.0232 141.192 15.6374 141.192 17.5478C141.192 19.4582 141.459 21.0724 141.994 22.3905C142.538 23.7087 143.317 24.7069 144.329 25.385C145.342 26.0632 146.55 26.4023 147.954 26.4023C149.368 26.4023 150.576 26.0632 151.579 25.385C152.592 24.7069 153.365 23.7087 153.9 22.3905C154.445 21.0724 154.717 19.4582 154.717 17.5478Z" fill="white"/>
    <path d="M129.819 2.87646V32.2195H122.727V2.87646H129.819Z" fill="white"/>
    <path d="M99.125 32.2195V2.87646H119.155V8.63619H106.217V14.6538H117.88V20.4279H106.217V32.2195H99.125Z" fill="white"/>
    <path d="M75.5244 32.2195V2.87646H95.5545V8.63619H82.6166V14.6538H94.2793V20.4279H82.6166V32.2195H75.5244Z" fill="white"/>
    <path d="M50.7444 32.2195H43.1221L53.0225 2.87646H62.4644L72.3648 32.2195H64.7425L57.8509 10.2695H57.6217L50.7444 32.2195ZM49.7271 20.6714H65.6595V26.0586H49.7271V20.6714Z" fill="white"/>
    <defs>
        <linearGradient id="paint0_linear_3907_21665" x1="14.5439" y1="23.9325" x2="32.1799" y2="23.9325" gradientUnits="userSpaceOnUse">
            <stop stop-color="#8E7CFA"/>
            <stop offset="1" stop-color="#FC67FC"/>
        </linearGradient>
    </defs>
</svg>
