<svg width="1000" height="1000" viewBox="0 0 1000 1000" fill="none" xmlns="http://www.w3.org/2000/svg">
<g clip-path="url(#clip0_3987_618)">
<path d="M367.018 484.536H594.196L437.203 642.268H343.007V726.392C343.007 766.598 310.377 798.763 270.359 798.763C269.744 798.763 269.744 798.763 269.128 798.763L154 800V449.897C154 332.371 219.26 248.866 311.609 216.082C342.391 204.948 374.406 200 406.42 200H846C837.381 323.093 721.637 420.825 578.804 420.825C573.263 420.825 568.338 420.825 562.797 420.206V420.825H447.053C408.883 420.825 376.253 447.423 367.018 484.536Z" fill="#E5E4E4"/>
<path d="M783.203 484.536V720.206C783.203 764.124 747.495 800 703.783 800H594.196V642.268H437.203L594.196 484.536H783.203Z" fill="url(#paint0_linear_3987_618)"/>
</g>
<defs>
<linearGradient id="paint0_linear_3987_618" x1="437.203" y1="642.274" x2="782.895" y2="642.274" gradientUnits="userSpaceOnUse">
<stop stop-color="#8E7CFA"/>
<stop offset="1" stop-color="#FC67FC"/>
</linearGradient>
<clipPath id="clip0_3987_618">
<rect width="692" height="600" fill="white" transform="translate(154 200)"/>
</clipPath>
</defs>
</svg>
